<?xml version="1.0" encoding="utf-8"?>
<!-- Generator: Adobe Illustrator 22.1.0, SVG Export Plug-In . SVG Version: 6.00 Build 0)  -->
<svg version="1.1" xmlns="http://www.w3.org/2000/svg" xmlns:xlink="http://www.w3.org/1999/xlink" x="0px" y="0px"
	 viewBox="0 0 1400 1000" style="enable-background:new 0 0 1400 1000;" xml:space="preserve">
<style type="text/css">
	.st0{fill:#FFFFFF;}
	.st1{fill:#84472C;}
	.st2{font-family:'DancingScript-Regular';}
	.st3{font-size:137.9606px;}
	.st4{letter-spacing:-2;}
	.st5{fill:#D5F7FF;}
	.st6{fill:#AAECFF;}
	.st7{fill:#FF9761;}
	.st8{fill:#E54C29;}
	.st9{fill:#FF7752;}
	.st10{fill:#A8694A;}
	.st11{fill:#601212;}
	.st12{opacity:0.58;fill:#E54C29;}
	.st13{fill:#C1260C;}
	.st14{fill:#FFE69D;}
	.st15{fill:#F9BD46;}
	.st16{fill:#84C330;}
	.st17{fill:#FED3B2;}
	.st18{fill:#F7B88D;}
	.st19{opacity:0.5;fill:#FED3B2;}
	.st20{fill:#6BA314;}
	.st21{fill:#612F00;}
	.st22{fill:#C63434;}
	.st23{fill:#EAE8E8;}
	.st24{fill:#753B14;}
	.st25{fill:#FFC999;}
	.st26{fill:#494848;}
	.st27{fill:#C64747;}
	.st28{fill:#F2EEEB;}
	.st29{fill:#A83226;}
	.st30{fill:#FD7854;}
	.st31{fill:#704623;}
	.st32{fill:#D6D4D4;}
</style>
<g id="BACKGROUND">
	<rect class="st0" width="1400" height="1000"/>
</g>
<g id="OBJECTS">
	<g>
		<text transform="matrix(1 0 0 1 470.7432 207.8052)"><tspan x="0" y="0" class="st1 st2 st3 st4">I</tspan><tspan x="60.7" y="0" class="st1 st2 st3">ndonesia</tspan></text>
		<g>
			<path class="st5" d="M1231.9,415.7c21.4,0,22.6-32,1.2-33.3c-0.8,0-1.7-0.1-2.5-0.1c-2.1,0-4.2,0.2-6.2,0.5
				c0.5-2.5,0.7-5.1,0.7-7.7c0-24.1-19.5-43.6-43.6-43.6c-16.9,0-31.6,9.6-38.8,23.7c-6.2-4.5-13.9-7.2-22.2-7.2
				c-19.3,0-35.2,14.5-37.4,33.1c-1.4-0.1-2.8-0.2-4.2-0.2c-5,0-9.8,1-14.2,2.8c-16.9,6.9-11.7,32.1,6.5,32.1H1231.9z"/>
			<g>
				<path class="st5" d="M1283.2,757.6l-220.3-259.2c-33.2-2.8-36.4-19.7-75.5-19.7c-42.5,0-42.5,20.1-85.1,20.1
					c-42.5,0-42.5-20.1-85.1-20.1c-39.1,0-42.3,17-75.6,19.7L521.4,757.6H1283.2z"/>
				<path class="st6" d="M902.4,498.8c-42.5,0-42.5-20.1-85.1-20.1c-39.1,0-42.3,17-75.6,19.7l103.8-122.1
					c32.4-38.1,81.4-38.1,113.8,0l103.7,122.1c-33.2-2.8-36.4-19.7-75.5-19.7C944.9,478.7,944.9,498.8,902.4,498.8z"/>
			</g>
			<g>
				<rect x="144.9" y="629.6" class="st7" width="171.6" height="78"/>
				<g>
					<rect x="158.8" y="666.7" class="st8" width="43.5" height="27.4"/>
					<rect x="259" y="666.7" class="st8" width="43.5" height="27.4"/>
					<rect x="218.7" y="666.7" class="st8" width="25" height="27.4"/>
				</g>
				<path class="st9" d="M230.7,571.6c-59.9,0-111.5-16.8-135.5-41L131.6,655h88.9h20.3h88.9l36.4-124.4
					C342.2,554.8,290.6,571.6,230.7,571.6z"/>
				<polygon class="st8" points="128.1,643 131.6,655 329.8,655 333.3,643 				"/>
				<g>
					<path class="st8" d="M314.5,559.7L286.6,655h44.3l36.4-124.4C355.6,542.4,337.2,552.5,314.5,559.7z"/>
				</g>
				<path class="st10" d="M319.6,710.8H141.8c-2,0-3.6-1.6-3.6-3.6l0,0c0-2,1.6-3.6,3.6-3.6h177.9c2,0,3.6,1.6,3.6,3.6l0,0
					C323.3,709.1,321.6,710.8,319.6,710.8z"/>
				<g>
					<g>
						<rect x="144.5" y="704.5" class="st10" width="6.2" height="51.1"/>
					</g>
					<g>
						<rect x="162.9" y="704.5" class="st10" width="6.2" height="51.1"/>
					</g>
					<g>
						<rect x="181.4" y="704.5" class="st10" width="6.2" height="51.1"/>
					</g>
					<g>
						<rect x="199.9" y="704.5" class="st10" width="6.2" height="51.1"/>
					</g>
					<g>
						<rect x="218.3" y="704.5" class="st10" width="6.2" height="51.1"/>
					</g>
					<g>
						<rect x="236.8" y="704.5" class="st10" width="6.2" height="51.1"/>
					</g>
					<g>
						<rect x="255.3" y="704.5" class="st10" width="6.2" height="51.1"/>
					</g>
					<g>
						<rect x="273.7" y="704.5" class="st10" width="6.2" height="51.1"/>
					</g>
					<g>
						<rect x="292.2" y="704.5" class="st10" width="6.2" height="51.1"/>
					</g>
					<g>
						<rect x="310.6" y="704.5" class="st10" width="6.2" height="51.1"/>
					</g>
				</g>
				<g>
					<rect x="147.8" y="735.3" class="st10" width="166.2" height="6.2"/>
				</g>
			</g>
			<path class="st6" d="M728.7,513.7L521.4,757.6h419.3L729.2,514.2C729,514.1,728.9,513.9,728.7,513.7z"/>
			<path class="st11" d="M660.9,707.6c0.1,1.1,0.2,2.3,0.3,3.4C661.1,709.8,661,708.7,660.9,707.6z"/>
			<path class="st11" d="M660.1,700.1c0.1,0.8,0.2,1.7,0.3,2.5C660.3,701.7,660.2,700.9,660.1,700.1z"/>
			<path class="st11" d="M660.4,702.6c0.2,1.7,0.4,3.3,0.5,5C660.8,705.9,660.6,704.3,660.4,702.6z"/>
			<path class="st11" d="M661.2,711c0.2,2.2,0.3,4.4,0.4,6.6C661.5,715.4,661.4,713.2,661.2,711z"/>
			<path class="st11" d="M661.2,711c-0.1-1.1-0.2-2.3-0.3-3.4C661,708.7,661.1,709.8,661.2,711z"/>
			<path class="st11" d="M660.4,702.6c-0.1-0.8-0.2-1.7-0.3-2.5C660.2,700.9,660.3,701.7,660.4,702.6z"/>
			<path class="st11" d="M661.6,717.6c-0.1-1.9-0.2-3.9-0.3-5.9c0,0,0,0,0,0C661.4,713.7,661.5,715.6,661.6,717.6z"/>
			<path class="st11" d="M660.9,707.6c-0.2-1.6-0.3-3.3-0.5-5C660.6,704.3,660.8,705.9,660.9,707.6z"/>
			<path class="st11" d="M661.3,711.7C661.3,711.7,661.3,711.7,661.3,711.7c0-0.2,0-0.5-0.1-0.7
				C661.2,711.2,661.2,711.4,661.3,711.7z"/>
			<path class="st5" d="M914.6,757.6L703,514.2c-24.9-28.6-62.4-28.6-87.3,0L404.2,757.6H914.6z"/>
			<path class="st6" d="M659.4,606.1c-32.6,0-32.6-15.1-65.3-15.1c-30,0-32.5,12.7-58,14.8l79.6-91.6c24.9-28.6,62.4-28.6,87.3,0
				l79.6,91.6c-25.5-2.1-27.9-14.8-57.9-14.8C692.1,591.1,692.1,606.1,659.4,606.1z"/>
			<g>
				<g>
					<path class="st8" d="M990.9,516.9c-0.2-1.9-2.4-3.4-4.9-3.4l0,0l-3.2,0l0,0c-2.6,0-4.7,1.5-4.9,3.3l-11.2,89.8l16.1,0l3.2,0
						l16.1,0L990.9,516.9z"/>
					<path class="st7" d="M985.4,587.8c-45.2-0.3-82.5,76.5-84.5,131l167,1.3C1066.7,665.5,1030.5,588.1,985.4,587.8z"/>
					<path class="st12" d="M1043.1,719.9l24.7,0.2c-1.1-54.6-37.3-132-82.5-132.3c-4.3,0-8.5,0.6-12.7,1.9
						C1012,602,1042,670.3,1043.1,719.9z"/>
					<path class="st8" d="M1073.5,736.9H895.1c-5.1,0-9.2-4.1-9.2-9.2v-4.8c0-5.1,4.1-9.2,9.2-9.2h178.4c5.1,0,9.2,4.1,9.2,9.2v4.8
						C1082.8,732.8,1078.6,736.9,1073.5,736.9z"/>
					<path class="st13" d="M1086.7,755.6H882c-4.6,0-8.4-3.8-8.4-8.4v-6.5c0-4.6,3.8-8.4,8.4-8.4h204.6c4.6,0,8.4,3.8,8.4,8.4v6.5
						C1095,751.9,1091.3,755.6,1086.7,755.6z"/>
					<g>
						<g>
							
								<rect x="923.3" y="669.3" transform="matrix(0.7071 -0.7071 0.7071 0.7071 -204.8805 853.8822)" class="st8" width="9.9" height="9.9"/>
							
								<rect x="960.9" y="669.3" transform="matrix(0.7071 -0.7071 0.7071 0.7071 -193.8938 880.4064)" class="st8" width="9.9" height="9.9"/>
							
								<rect x="998.4" y="669.3" transform="matrix(0.7071 -0.7071 0.7071 0.7071 -182.9071 906.9308)" class="st8" width="9.9" height="9.9"/>
							
								<rect x="1035.9" y="669.3" transform="matrix(0.7071 -0.7071 0.7071 0.7071 -171.9203 933.4551)" class="st8" width="9.9" height="9.9"/>
						</g>
						<g>
							
								<rect x="960.9" y="617.1" transform="matrix(0.7071 -0.7071 0.7071 0.7071 -156.9829 865.1174)" class="st8" width="9.9" height="9.9"/>
							
								<rect x="998.4" y="617.1" transform="matrix(0.7071 -0.7071 0.7071 0.7071 -145.9962 891.6418)" class="st8" width="9.9" height="9.9"/>
							<path class="st8" d="M934.4,621.2c-1.3,1.8-2.5,3.6-3.7,5.4l4.5-4.5L934.4,621.2z"/>
							<path class="st8" d="M1039.8,628c-1.5-2.5-3.1-4.9-4.8-7.2l-1.2,1.2L1039.8,628z"/>
						</g>
						<g>
							
								<rect x="938.4" y="695.9" transform="matrix(0.7071 -0.7071 0.7071 0.7071 -219.2526 872.2899)" class="st8" width="9.9" height="9.9"/>
							
								<rect x="979" y="695.9" transform="matrix(0.7071 -0.7071 0.7071 0.7071 -207.3492 901.0271)" class="st8" width="9.9" height="9.9"/>
							
								<rect x="1019.7" y="695.9" transform="matrix(0.7071 -0.7071 0.7071 0.7071 -195.4459 929.7642)" class="st8" width="9.9" height="9.9"/>
							<path class="st8" d="M909.7,700.8l-5.9-5.9c-0.8,4.1-1.4,8.1-1.9,12.1l0.8,0.8L909.7,700.8z"/>
							<path class="st8" d="M1065.2,707.8l1.6-1.6c-0.5-4-1.1-8-1.8-12.1l-6.8,6.8L1065.2,707.8z"/>
						</g>
						<g>
							
								<rect x="938.4" y="643.6" transform="matrix(0.7071 -0.7071 0.7071 0.7071 -182.2805 856.9755)" class="st8" width="9.9" height="9.9"/>
							
								<rect x="979" y="643.6" transform="matrix(0.7071 -0.7071 0.7071 0.7071 -170.3771 885.7128)" class="st8" width="9.9" height="9.9"/>
							
								<rect x="1019.7" y="643.6" transform="matrix(0.7071 -0.7071 0.7071 0.7071 -158.4738 914.4499)" class="st8" width="9.9" height="9.9"/>
						</g>
						
							<rect x="979" y="595.8" transform="matrix(0.7071 -0.7071 0.7071 0.7071 -136.6001 871.7219)" class="st8" width="9.9" height="9.9"/>
					</g>
					<rect x="951.1" y="577.5" class="st8" width="66.5" height="23.8"/>
				</g>
			</g>
			<g>
				<rect x="400.1" y="664.6" class="st14" width="102.3" height="91"/>
				<rect x="407.5" y="587.8" class="st14" width="87.6" height="77.9"/>
				<rect x="415.5" y="525.4" class="st14" width="71.5" height="63.6"/>
				<rect x="427.1" y="473.1" class="st14" width="48.3" height="42.9"/>
				<rect x="431.4" y="435" class="st14" width="39.7" height="35.3"/>
				<rect x="438.6" y="406.6" class="st14" width="25.2" height="22.4"/>
				<rect x="457.3" y="406.6" class="st15" width="6.5" height="22.4"/>
				<rect x="457.3" y="435" class="st15" width="13.8" height="35.3"/>
				<rect x="457.3" y="473.1" class="st15" width="18.1" height="42.9"/>
				<rect x="457.3" y="525.4" class="st15" width="29.7" height="63.6"/>
				<rect x="457.3" y="587.8" class="st15" width="37.7" height="77.9"/>
				<rect x="457.3" y="664.6" class="st15" width="45.1" height="91"/>
				<rect x="434.3" y="404.3" class="st15" width="33.9" height="8.2"/>
				<path class="st10" d="M473.5,408.4c-2.6-6.3-10.4-10.5-19.2-10.5l0,0h-6h0c-8.8,0-16.6,4.3-19.2,10.5l-1.2,3h20.4h6h20.4
					L473.5,408.4z"/>
				<rect x="424.6" y="431.5" class="st15" width="53.3" height="13"/>
				<path class="st10" d="M486.2,437.8c-4-9.9-16.3-16.6-30.2-16.6l0,0h-9.5l0,0c-13.9,0-26.2,6.7-30.2,16.6l-1.9,4.7h32.2h9.5h32.2
					L486.2,437.8z"/>
				<rect x="418.9" y="468.8" class="st15" width="64.8" height="15.7"/>
				<path class="st10" d="M493.8,476.6c-4.9-12-19.8-20.2-36.8-20.2l0,0h-11.5l0,0c-16.9,0-31.8,8.2-36.8,20.2l-2.3,5.7h39.1H457
					h39.1L493.8,476.6z"/>
				<rect x="403.3" y="519.1" class="st15" width="95.9" height="23.3"/>
				<path class="st10" d="M514.2,530.6c-7.3-17.7-29.4-29.8-54.4-29.8h0h-17.1l0,0c-25,0-47.1,12.1-54.4,29.8l-3.5,8.5h57.9h17.1
					h57.9L514.2,530.6z"/>
				<rect x="392.5" y="580" class="st15" width="117.5" height="28.6"/>
				<path class="st10" d="M528.4,594.1c-8.9-21.7-36-36.6-66.7-36.6h0h-20.9l0,0c-30.7,0-57.8,14.8-66.7,36.6l-4.3,10.4h70.9h20.9
					h70.9L528.4,594.1z"/>
				<rect x="382.6" y="655.6" class="st15" width="137.3" height="33.4"/>
				<path class="st10" d="M541.3,672c-10.4-25.4-42-42.7-77.9-42.7l0,0H439l0,0c-35.8,0-67.5,17.3-77.9,42.7l-5,12.1H439h24.5h82.8
					L541.3,672z"/>
				<path class="st1" d="M473.5,408.4c-2.6-6.3-10.4-10.5-19.2-10.5h-6h0c-0.4,0-0.7,0-1.1,0c8.4,0.3,15.7,4.5,18.1,10.5l1.2,3h8.2
					L473.5,408.4z"/>
				<path class="st1" d="M486.3,437.8c-4-9.9-16.3-16.6-30.2-16.6h-9.5c-0.5,0-0.9,0-1.4,0c13.3,0.4,24.9,7,28.8,16.5l1.9,4.7h12.3
					L486.3,437.8z"/>
				<path class="st1" d="M493.8,476.6c-4.9-12-19.8-20.2-36.8-20.2h-11.5c0,0,0,0,0,0c16.9,0,31.8,8.2,36.7,20.2l2.3,5.7h11.6
					L493.8,476.6z"/>
				<path class="st1" d="M514.2,530.6c-7.3-17.7-29.4-29.8-54.4-29.8h0h-17.1c-1.4,0-2.8,0-4.1,0.1c23.3,1.2,43.4,13,50.3,29.7
					l3.5,8.5h25.3L514.2,530.6z"/>
				<path class="st1" d="M528.4,594.1c-8.9-21.7-36-36.6-66.7-36.6h0h-20.9c-1,0-1.9,0-2.9,0c29.5,0.9,55.2,15.5,63.8,36.5l4.3,10.4
					h26.7L528.4,594.1z"/>
				<path class="st1" d="M541.3,672c-10.4-25.4-42-42.7-77.9-42.7H439c-1.2,0-2.3,0-3.5,0.1c34.4,1.1,64.3,18.1,74.4,42.7l5,12.1
					h31.5L541.3,672z"/>
				<path class="st10" d="M451.3,701.4c-11.2,0-20.2,10.9-20.2,24.3v30h40.4v-30C471.5,712.2,462.4,701.4,451.3,701.4z"/>
				<path class="st1" d="M451.3,701.4c-3,0-5.8,0.8-8.3,2.2c7,3.8,11.9,12.3,11.9,22.1v30h16.7v-30
					C471.5,712.2,462.4,701.4,451.3,701.4z"/>
			</g>
			<path class="st16" d="M1311.6,754.9H88.4c-6.7,0-12.2,5.5-12.2,12.2v7.9c0,6.7,5.5,12.2,12.2,12.2h1223.3
				c6.7,0,12.2-5.5,12.2-12.2v-7.9C1323.9,760.4,1318.4,754.9,1311.6,754.9z"/>
			<g>
				<g>
					<path class="st17" d="M668.9,350.4c0,21.7-19.6,39.2-19.6,39.2s-19.6-17.6-19.6-39.2s19.6-44.6,19.6-44.6
						S668.9,328.7,668.9,350.4z"/>
					<path class="st18" d="M655.2,313.8c-3.3-4.9-5.9-8-5.9-8s-19.6,22.9-19.6,44.6s19.6,39.2,19.6,39.2s0.6-0.5,1.6-1.5
						c-5.7-7.1-13.2-18.9-13.2-32.3C637.7,338.5,650.2,320.3,655.2,313.8z"/>
					<path class="st17" d="M668.9,350.4c0-13.8-7.9-28-13.7-36.6c-5,6.5-17.5,24.7-17.5,42c0,13.4,7.5,25.2,13.2,32.3
						C655.5,383.4,668.9,368.3,668.9,350.4z"/>
				</g>
				<g>
					<polygon class="st17" points="635.9,395.2 648.3,395.2 650.3,395.2 662.8,395.2 679.4,697.9 650.3,697.9 648.3,697.9 
						619.2,697.9 					"/>
					<polygon class="st19" points="650.3,395.2 662.8,395.2 679.4,697.9 650.3,697.9 649.3,697.9 649.3,395.2 					"/>
				</g>
				<g>
					<polygon class="st17" points="635.9,395.2 648.3,395.2 650.3,395.2 662.8,395.2 679.4,697.9 650.3,697.9 648.3,697.9 
						619.2,697.9 					"/>
					<polygon class="st18" points="650.3,395.2 662.8,395.2 679.4,697.9 650.3,697.9 649.3,697.9 649.3,395.2 					"/>
				</g>
				<polygon class="st17" points="675.3,690.3 675.3,690.3 669.1,698.8 669.1,698.8 				"/>
				<g>
					<g>
						<polygon class="st17" points="635.9,691.5 633.2,691.5 557.6,691.5 587.8,748.6 633.2,748.6 635.9,748.6 710.9,748.6 
							741,691.5 						"/>
						<polygon class="st18" points="635.9,691.5 633.2,691.5 557.6,691.5 563.8,700.1 734.8,700.1 741,691.5 						"/>
					</g>
					<polygon class="st18" points="649.5,700.1 649.5,748.6 710.9,748.6 734.8,700.1 					"/>
				</g>
				<rect x="547.6" y="684.3" class="st10" width="203.5" height="10.6"/>
				<rect x="574.8" y="745.6" class="st10" width="149" height="10"/>
				<polygon class="st17" points="663,698.1 662.4,698.1 662.4,698.1 663,698.1 682,698.1 682,698.1 				"/>
				<polygon class="st17" points="649.5,405.6 649.5,405.6 649.1,395.2 				"/>
				<polygon class="st18" points="662.8,395.2 650.3,395.2 649.3,395.2 648.3,395.2 635.9,395.2 635.5,405.6 649.3,405.6 
					663.1,405.6 				"/>
				<rect x="631.7" y="371.9" class="st18" width="35.2" height="17.8"/>
				<rect x="624.5" y="381.4" class="st10" width="49.5" height="19.1"/>
				<rect x="648.7" y="381.4" class="st1" width="25.5" height="19.1"/>
			</g>
			<path class="st5" d="M328.2,467c21.9,0,23.1-32.7,1.2-34c-0.9,0-1.7-0.1-2.6-0.1c-2.1,0-4.3,0.2-6.3,0.5c0.5-2.6,0.7-5.2,0.7-7.9
				c0-24.5-19.9-44.4-44.4-44.4c-17.3,0-32.2,9.8-39.6,24.2c-6.4-4.6-14.2-7.4-22.6-7.4c-19.7,0-35.9,14.8-38.2,33.8
				c-1.4-0.2-2.8-0.2-4.2-0.2c-5.1,0-10,1-14.5,2.8c-17.2,7-12,32.7,6.6,32.7H328.2z"/>
			<path class="st5" d="M571.7,344.5c19.2,0,20.2-28.7,1.1-29.8c-0.7,0-1.5-0.1-2.3-0.1c-1.9,0-3.7,0.1-5.5,0.4
				c0.4-2.2,0.6-4.6,0.6-6.9c0-21.5-17.5-39-39-39c-15.1,0-28.2,8.6-34.7,21.2c-5.6-4.1-12.4-6.5-19.9-6.5
				c-17.2,0-31.5,12.9-33.5,29.6c-1.2-0.1-2.5-0.2-3.7-0.2c-4.5,0-8.8,0.9-12.7,2.5c-15.1,6.1-10.5,28.7,5.8,28.7H571.7z"/>
			<path class="st5" d="M902.8,371.9c21.4,0,22.6-32,1.2-33.3c-0.8,0-1.7-0.1-2.5-0.1c-2.1,0-4.2,0.2-6.2,0.5
				c0.5-2.5,0.7-5.1,0.7-7.7c0-24.1-19.5-43.6-43.6-43.6c-16.9,0-31.6,9.6-38.8,23.7c-6.2-4.5-13.9-7.2-22.2-7.2
				c-19.3,0-35.2,14.5-37.4,33.1c-1.4-0.1-2.8-0.2-4.2-0.2c-5,0-9.8,1-14.2,2.8c-16.9,6.9-11.7,32.1,6.5,32.1H902.8z"/>
			<path id="XMLID_598_" class="st5" d="M1283.6,785.8H676.5h-23.4H111.9c-6.6,0-12,7.4-12,16.6v8.3c0,9.1,5.4,16.6,12,16.6H176
				c5.4,0,9.8,5.4,9.8,11.9v0c0,6.6-4.4,11.9-9.8,11.9h-37.9c-6.2,0-11.4,6.2-11.4,13.8v0c0,7.6,5.1,13.8,11.4,13.8h118.4
				c3.4,0,6.2,3.4,6.2,7.6c0,4.2-2.8,7.6-6.2,7.6h-83.1c-2.7,0-4.9,3-4.9,6.8v3.4c0,3.7,2.2,6.8,4.9,6.8h479.7h23.4h545.6
				c2.7,0,4.9-3,4.9-6.8v-3.4c0-3.7-2.2-6.8-4.9-6.8h-83.1c-3.4,0-6.2-3.4-6.2-7.6c0-4.2,2.8-7.6,6.2-7.6h118.4
				c6.2,0,11.4-6.2,11.4-13.8v0c0-7.6-5.1-13.8-11.4-13.8h-37.9c-5.4,0-9.8-5.4-9.8-11.9v0c0-6.6,4.4-11.9,9.8-11.9h64.1
				c6.6,0,12-7.4,12-16.6v-8.3C1295.6,793.3,1290.2,785.8,1283.6,785.8z"/>
			<g>
				<path class="st16" d="M405.9,754.8c-4.2-19.9-21.8-34.9-43-34.9c-21.2,0-38.8,15-43,34.9H405.9z"/>
				<path class="st20" d="M321.9,748.2c-0.8,2.1-1.5,4.3-1.9,6.6h85.9c-0.5-2.3-1.1-4.5-1.9-6.6H321.9z"/>
				<path class="st20" d="M363,719.9c-4.4,0-8.6,0.7-12.6,1.9c15.3,4.6,27,17.2,30.3,33h25.3C401.8,734.9,384.1,719.9,363,719.9z"/>
			</g>
			<g>
				<path class="st16" d="M211.6,754.8c-3.1-14.8-16.2-26-32-26s-28.9,11.1-32,26H211.6z"/>
				<path class="st20" d="M149.1,749.9c-0.6,1.6-1.1,3.2-1.4,4.9h64c-0.4-1.7-0.8-3.3-1.4-4.9H149.1z"/>
				<path class="st20" d="M179.7,728.9c-3.3,0-6.4,0.5-9.4,1.4c11.4,3.4,20.1,12.8,22.6,24.6h18.8
					C208.6,740,195.4,728.9,179.7,728.9z"/>
			</g>
			<g>
				<path class="st16" d="M590.7,754.8c-3.7-17.5-19.2-30.7-37.8-30.7c-18.6,0-34.2,13.2-37.8,30.7H590.7z"/>
				<path class="st20" d="M516.8,749c-0.7,1.9-1.3,3.8-1.7,5.8h75.7c-0.4-2-1-3.9-1.7-5.8H516.8z"/>
				<path class="st20" d="M552.9,724.1c-3.9,0-7.6,0.6-11.1,1.6c13.4,4,23.8,15.2,26.7,29.1h22.2
					C587.1,737.3,571.5,724.1,552.9,724.1z"/>
			</g>
			<g>
				<path class="st16" d="M935.3,754.8c-4.1-19.5-21.4-34.2-42.1-34.2c-20.7,0-38.1,14.7-42.1,34.2H935.3z"/>
				<path class="st20" d="M852.9,748.4c-0.8,2.1-1.4,4.2-1.9,6.5h84.3c-0.5-2.2-1.1-4.4-1.9-6.5H852.9z"/>
				<path class="st20" d="M893.2,720.6c-4.3,0-8.5,0.6-12.4,1.8c15,4.5,26.5,16.9,29.8,32.4h24.8
					C931.2,735.3,913.9,720.6,893.2,720.6z"/>
			</g>
			<g>
				<path class="st16" d="M995.6,754.8c-3.4-16.4-18-28.7-35.4-28.7s-32,12.3-35.4,28.7H995.6z"/>
				<path class="st20" d="M926.4,749.4c-0.7,1.7-1.2,3.6-1.6,5.4h70.8c-0.4-1.9-0.9-3.7-1.6-5.4H926.4z"/>
				<path class="st20" d="M960.2,726.1c-3.6,0-7.1,0.5-10.4,1.5c12.6,3.8,22.3,14.2,25,27.2h20.8
					C992.1,738.4,977.6,726.1,960.2,726.1z"/>
			</g>
			<g>
				<path class="st16" d="M174,754.8c-4.1-19.5-21.4-34.2-42.1-34.2s-38,14.7-42.1,34.2H174z"/>
				<path class="st20" d="M91.7,748.4c-0.8,2.1-1.4,4.2-1.9,6.5H174c-0.5-2.2-1.1-4.4-1.9-6.5H91.7z"/>
				<path class="st20" d="M131.9,720.6c-4.3,0-8.5,0.6-12.4,1.8c15,4.5,26.5,16.9,29.7,32.4H174
					C169.9,735.3,152.6,720.6,131.9,720.6z"/>
			</g>
			<g>
				<rect x="1185.3" y="385.8" class="st10" width="15.4" height="32.8"/>
				<rect x="1193.3" y="385.8" class="st21" width="7.4" height="32.8"/>
				<polygon class="st15" points="1200.8,379.5 1193.7,379.5 1192.3,379.5 1185.2,379.5 1179.8,393.6 1192.3,393.6 1193.7,393.6 
					1206.2,393.6 				"/>
				<polygon class="st14" points="1179.2,390.6 1206.8,390.6 1193,362 				"/>
				<rect x="1180" y="411.7" class="st10" width="26" height="55.5"/>
				<rect x="1197.7" y="411.7" class="st21" width="8.3" height="55.5"/>
				<polygon class="st15" points="1206.2,401 1194.2,401 1191.8,401 1179.8,401 1170.7,424.8 1191.8,424.8 1194.2,424.8 
					1215.3,424.8 				"/>
				<polygon class="st14" points="1206.2,398.6 1194.2,398.6 1191.8,398.6 1179.8,398.6 1170.7,422.5 1191.8,422.5 1194.2,422.5 
					1215.3,422.5 				"/>
				<rect x="1169.7" y="456.3" class="st10" width="46.6" height="99.4"/>
				<rect x="1204.2" y="456.3" class="st21" width="12.1" height="99.4"/>
				<polygon class="st15" points="1216.6,437.1 1195.2,437.1 1190.8,437.1 1169.4,437.1 1153.1,479.9 1190.8,479.9 1195.2,479.9 
					1232.9,479.9 				"/>
				<polygon class="st14" points="1216.6,432.9 1195.2,432.9 1190.8,432.9 1169.4,432.9 1153.1,475.7 1190.8,475.7 1195.2,475.7 
					1232.9,475.7 				"/>
				<rect x="1152.7" y="529.1" class="st10" width="80.7" height="172.3"/>
				<rect x="1205" y="529.1" class="st21" width="28.3" height="172.3"/>
				<polygon class="st15" points="1234,495.8 1196.8,495.8 1189.2,495.8 1152.1,495.8 1123.9,570 1189.2,570 1196.8,570 1262.1,570 
									"/>
				<polygon class="st14" points="1234,488.5 1196.8,488.5 1189.2,488.5 1152.1,488.5 1123.9,562.7 1189.2,562.7 1196.8,562.7 
					1262.1,562.7 				"/>
				<rect x="1126.9" y="625.8" class="st10" width="132.2" height="128.8"/>
				<rect x="1235" y="625.8" class="st21" width="24.1" height="128.8"/>
				<rect x="1126.9" y="625.8" class="st21" width="132.2" height="51.4"/>
				<polygon class="st15" points="1260.1,590 1199.2,590 1186.8,590 1125.9,590 1079.8,669.5 1186.8,669.5 1199.2,669.5 
					1306.2,669.5 				"/>
				<polygon class="st14" points="1260.1,582.2 1199.2,582.2 1186.8,582.2 1125.9,582.2 1079.8,661.7 1186.8,661.7 1199.2,661.7 
					1306.2,661.7 				"/>
				<polygon class="st15" points="1196.4,390.6 1206.8,390.6 1193,362 				"/>
				<polygon class="st15" points="1215.3,422.5 1200.2,422.5 1197.4,398.6 1206.2,398.6 				"/>
				<polygon class="st15" points="1232.9,475.7 1206.5,475.7 1201.4,432.8 1216.6,432.8 				"/>
				<polygon class="st15" points="1262.1,562.7 1216.9,562.7 1208,488.5 1234,488.5 				"/>
				<polygon class="st15" points="1306.2,661.7 1228.6,661.7 1219.2,582.2 1260.1,582.2 				"/>
				<path class="st21" d="M1194,684.2h-1.9c-12.4,0-22.5,10-22.5,22.3v48.1h47v-48.1C1216.5,694.2,1206.4,684.2,1194,684.2z"/>
				<polygon class="st15" points="1206.8,390.6 1196.4,390.6 1193,362 				"/>
				<polygon class="st15" points="1215.3,422.5 1200.2,422.5 1197.4,398.6 1206.2,398.6 				"/>
				<polygon class="st15" points="1232.9,475.7 1206.5,475.7 1201.4,432.8 1216.6,432.8 				"/>
				<polygon class="st15" points="1262.1,562.7 1216.9,562.7 1208,488.5 1234,488.5 				"/>
				<polygon class="st15" points="1306.2,661.7 1228.6,661.7 1219.2,582.2 1260.1,582.2 				"/>
			</g>
			<g>
				<path class="st16" d="M1303.2,754.8c-4.1-19.5-21.4-34.2-42.1-34.2c-20.7,0-38,14.7-42.1,34.2H1303.2z"/>
				<path class="st20" d="M1220.8,748.4c-0.8,2.1-1.4,4.2-1.9,6.5h84.2c-0.5-2.2-1.1-4.4-1.9-6.5H1220.8z"/>
				<path class="st20" d="M1261.1,720.6c-4.3,0-8.5,0.6-12.4,1.8c15,4.5,26.5,16.9,29.7,32.4h24.8
					C1299.1,735.3,1281.8,720.6,1261.1,720.6z"/>
			</g>
			<g>
				<g>
					<g>
						<g>
							
								<rect x="695.3" y="593.7" transform="matrix(-0.8612 -0.5082 0.5082 -0.8612 1005.4891 1473.9175)" class="st22" width="17.3" height="11.9"/>
							
								<rect x="699.5" y="593.6" transform="matrix(0.5082 -0.8612 0.8612 0.5082 -173.2217 901.1688)" class="st23" width="6" height="17.3"/>
						</g>
						<path class="st24" d="M701,621.8L701,621.8c0.3,0.2,0.8,0.1,1-0.3l13.5-22.9c0.2-0.3,0.1-0.8-0.3-1l0,0
							c-0.3-0.2-0.8-0.1-1,0.3l-13.5,22.9C700.6,621.2,700.7,621.6,701,621.8z"/>
					</g>
					<path class="st25" d="M697.2,614.7l-0.6,0.3l0,0c-2.3,1.2-3.1,4.2-1.5,6.3l4.2,5.9l2.8-1.5l0.6-0.3l2.8-1.5l-2.3-6.8
						C702.4,614.7,699.6,613.6,697.2,614.7L697.2,614.7z"/>
					<g>
						<g>
							<path class="st1" d="M745.7,760.1h-1.8c-2.8,0-5-2.6-4.6-5.6l1.1-9.3c0.1-0.6,0.6-1.1,1.2-1.1h6.4c0.6,0,1.2,0.5,1.2,1.1
								l1,9.3C750.7,757.5,748.5,760.1,745.7,760.1z"/>
							<rect x="741" y="733.8" class="st25" width="7.7" height="13.3"/>
							<path class="st25" d="M745.6,759.1H744c-2.5,0-4.4-2.2-4.1-4.6l1.1-8.6h7.7l1,8.7C750,756.9,748.1,759.1,745.6,759.1z"/>
							<polygon class="st1" points="750,755.5 739.7,755.5 740,750 749.7,750 							"/>
						</g>
						<g>
							<path class="st1" d="M759.5,760.1h-1.8c-2.8,0-5-2.6-4.6-5.6l1.1-9.3c0.1-0.6,0.6-1.1,1.2-1.1h6.4c0.6,0,1.2,0.5,1.2,1.1
								l1,9.3C764.4,757.5,762.2,760.1,759.5,760.1z"/>
							<rect x="754.7" y="733.8" class="st25" width="7.7" height="13.3"/>
							<path class="st25" d="M759.4,759.1h-1.6c-2.5,0-4.4-2.2-4.1-4.6l1.1-8.6h7.7l1,8.7C763.7,756.9,761.8,759.1,759.4,759.1z"/>
							<polygon class="st1" points="763.7,755.5 753.4,755.5 753.7,750 763.4,750 							"/>
						</g>
					</g>
					<g>
						<ellipse class="st26" cx="751.7" cy="575.8" rx="6.9" ry="5.2"/>
						<path class="st27" d="M751.7,581c3.2,0,5.8-1.6,6.6-3.8c-2.1-0.7-4.4-1.2-6.7-1.2c-2.3,0-4.5,0.4-6.5,1.1
							C745.8,579.4,748.5,581,751.7,581z"/>
						<g>
							<path class="st26" d="M772.5,607.7c0.7-2.3,1.1-4.7,1.1-7.1c0-12.2-9.9-23.2-22.1-23.2c-12.2,0-22.1,11-22.1,23.2
								c0,2.4,0.4,4.8,1.1,7.1H772.5z"/>
							<g>
								<path class="st25" d="M772.4,603.1c-2.8,0.2-5.9,0-9-0.6c-8-1.6-14.5-5.8-17.9-10.8c-3.9,6.1-9.5,10.1-14.7,10.8
									c0-0.2,0-0.5,0-0.7c0,11.5,9.3,22.9,20.8,22.9c11.5,0,20.8-11.4,20.8-22.9C772.4,602.3,772.4,602.7,772.4,603.1z"/>
								<path class="st26" d="M745.5,591.7c3.4,5,9.9,9.1,17.9,10.8c3.1,0.6,6.1,0.8,9,0.6c0-0.4,0.1-0.8,0.1-1.3
									c0-11.5-9.3-20.8-20.8-20.8c-0.7,0-1.3,0-1.9,0.1c-0.4,0-0.8,0.1-1.2,0.2c-0.2,0-0.5,0.1-0.7,0.1c-0.4,0.1-0.8,0.2-1.2,0.3
									c-0.2,0-0.4,0.1-0.5,0.1c-0.4,0.1-0.9,0.3-1.3,0.4c-0.1,0-0.2,0.1-0.3,0.1c-0.5,0.2-1,0.4-1.4,0.6c-1.3,0.6-2.5,1.3-3.7,2.2
									c-0.1,0.1-0.2,0.1-0.3,0.2c-1,0.8-2,1.6-2.8,2.6c-0.1,0.1-0.3,0.3-0.4,0.4c-0.2,0.3-0.4,0.5-0.7,0.8
									c-0.2,0.2-0.3,0.4-0.5,0.6c-0.2,0.3-0.4,0.5-0.5,0.8c-0.3,0.4-0.6,0.9-0.8,1.3c-0.1,0.2-0.2,0.4-0.3,0.7
									c-0.2,0.3-0.3,0.7-0.5,1c-0.1,0.2-0.2,0.4-0.3,0.7c-0.2,0.4-0.3,0.8-0.5,1.3c0,0.1-0.1,0.3-0.2,0.4
									c-0.2,0.6-0.3,1.1-0.4,1.7c0,0.2-0.1,0.4-0.1,0.5c-0.1,0.5-0.2,0.9-0.2,1.4c0,0.2,0,0.4-0.1,0.6c-0.1,0.6-0.1,1.3-0.1,1.9
									c0,0.2,0,0.5,0,0.7C736,601.8,741.6,597.8,745.5,591.7z"/>
							</g>
							<g>
								<circle class="st26" cx="761" cy="605.4" r="1"/>
								<circle class="st26" cx="742.2" cy="605.4" r="1"/>
							</g>
							<g>
								<path class="st27" d="M756.3,612.8v1.3c0,0.1,0,0.2,0,0.3c-0.1,1-0.4,1.9-1,2.6c-0.9,1.1-2.2,1.8-3.7,1.8
									c-1.5,0-2.9-0.7-3.7-1.8c-0.6-0.7-0.9-1.6-1-2.6c0-0.1,0-0.2,0-0.3v-1.3H756.3z"/>
								<path class="st28" d="M756.3,612.8v1.3c0,0.1,0,0.2,0,0.3h-9.4c0-0.1,0-0.2,0-0.3v-1.3H756.3z"/>
							</g>
							<ellipse class="st25" cx="730.7" cy="605.2" rx="2.7" ry="2.9"/>
							<ellipse class="st25" cx="772.6" cy="605.2" rx="2.7" ry="2.9"/>
						</g>
						<path class="st25" d="M746.7,623v5.2c0,3,5,5.5,5,5.5s5-2.5,5-5.5v-5.2c-1.6,0.8-3.3,1.2-5.1,1.2
							C749.9,624.1,748.2,623.7,746.7,623z"/>
					</g>
					<path class="st25" d="M771.4,670H732v-34.8c0-4.1,3.3-7.5,7.5-7.5h24.4c4.1,0,7.5,3.3,7.5,7.5V670z"/>
					<polygon class="st1" points="768.8,680.1 768.8,666.5 752.4,666.5 751,666.5 734.6,666.5 734.6,680.1 729.5,680.1 737.5,738.5 
						751,738.5 752.4,738.5 765.9,738.5 773.9,680.1 					"/>
					<rect x="732" y="635.6" class="st8" width="39.3" height="33.3"/>
					<g>
						<rect x="732" y="664.1" class="st29" width="39.3" height="6.1"/>
						<polygon class="st29" points="751.8,665.9 748.1,695.5 756.9,695.5 755.5,665.9 						"/>
						<polygon class="st29" points="750.7,665.9 755.4,691.9 760.7,690.8 753.8,665.9 						"/>
					</g>
					<g>
						<g>
							<g>
								<polygon class="st30" points="777.7,682.2 762.8,694.4 757.7,665.8 768.8,665.8 								"/>
								<path class="st30" d="M771.3,670h-13.1v-42.2h5.7c4.1,0,7.4,3.3,7.4,7.4V670z"/>
							</g>
							<g>
								<polygon class="st30" points="725.6,682.2 740.6,694.4 745.7,665.8 734.6,665.8 								"/>
								<path class="st30" d="M732.1,670h13.1v-42.2h-5.7c-4.1,0-7.4,3.3-7.4,7.4V670z"/>
							</g>
						</g>
						<g>
							<rect x="732" y="664.1" class="st13" width="39.3" height="6.1"/>
							<polygon class="st13" points="751.8,665.7 748.1,695.5 756.9,695.5 755.4,665.7 							"/>
							<polygon class="st13" points="750.7,665.7 755.4,691.9 760.7,690.8 753.8,665.7 							"/>
						</g>
					</g>
					<path class="st30" d="M789,649.2c-3.3-8.7-10.8-16-20.5-20.2c-2.6-1.1-5.6,0.1-6.7,2.7c-1.1,2.6,0.1,5.6,2.7,6.7
						c7.2,3,12.6,8.3,15,14.4c1.4,3.5,1.5,7,0.3,9.5c-1.5,3.3-5.4,5.1-8.4,6.1v1.7h-0.2l4.3,7.8c4.8-1.7,10.7-5,13.6-11.2
						C791.4,661.6,791.3,655.4,789,649.2z"/>
					<path class="st30" d="M741.4,629.7c-2.2-2.3-5.9-2.3-8.2,0c-2,2-9,7.7-14.3,7.3c-2.7-0.2-8.3-7.6-12.2-15.8l-10.2,5.5
						c3.5,7.4,11.3,21,21.4,21.8c0.5,0,1,0.1,1.4,0.1c10.9,0,20.8-9.6,21.9-10.7C743.7,635.6,743.7,632,741.4,629.7z"/>
				</g>
				<g>
					<path class="st25" d="M818.2,676.4l-0.3,0.6l0,0c-1.1,2.4-4.1,3.2-6.2,1.8l-6-4l1.4-2.9l0.3-0.6l1.4-2.9l6.9,2.1
						C818.1,671.2,819.3,674,818.2,676.4L818.2,676.4z"/>
					<g>
						<path class="st31" d="M822.8,760.1h1.8c2.8,0,5-2.6,4.6-5.6l-1.1-9.3c-0.1-0.6-0.6-1.1-1.2-1.1h-6.4c-0.6,0-1.2,0.5-1.2,1.1
							l-1,9.3C817.9,757.5,820,760.1,822.8,760.1z"/>
						
							<rect x="819.9" y="733.8" transform="matrix(-1 -1.224647e-16 1.224647e-16 -1 1647.4332 1480.8733)" class="st25" width="7.7" height="13.3"/>
						<path class="st25" d="M822.9,759.1h1.6c2.5,0,4.4-2.2,4.1-4.6l-1.1-8.6h-7.7l-1,8.7C818.5,756.9,820.5,759.1,822.9,759.1z"/>
						<polygon class="st31" points="818.6,755.5 828.9,755.5 828.6,750 818.9,750 						"/>
					</g>
					<rect x="817.3" y="704.8" class="st26" width="12.8" height="30.8"/>
					<g>
						<path class="st31" d="M840.3,760.1h1.8c2.8,0,5-2.6,4.6-5.6l-1.1-9.3c-0.1-0.6-0.6-1.1-1.2-1.1H838c-0.6,0-1.2,0.5-1.2,1.1
							l-1,9.3C835.4,757.5,837.6,760.1,840.3,760.1z"/>
						
							<rect x="837.4" y="733.8" transform="matrix(-1 -1.224647e-16 1.224647e-16 -1 1682.4913 1480.8733)" class="st25" width="7.7" height="13.3"/>
						<path class="st25" d="M840.4,759.1h1.6c2.5,0,4.4-2.2,4.1-4.6l-1.1-8.6h-7.7l-1,8.7C836.1,756.9,838,759.1,840.4,759.1z"/>
						<polygon class="st31" points="836.1,755.5 846.4,755.5 846.1,750 836.4,750 						"/>
					</g>
					<rect x="834.8" y="704.8" class="st26" width="12.8" height="30.8"/>
					<polygon class="st1" points="851.5,672.1 833,672.1 832,672.1 813.4,672.1 812.3,710.5 832,710.5 833,710.5 852.7,710.5 					
						"/>
					<g>
						<g>
							
								<rect x="871.2" y="593.7" transform="matrix(0.8612 -0.5082 0.5082 0.8612 -182.6665 530.3615)" class="st22" width="17.3" height="11.9"/>
							
								<rect x="872.7" y="599.3" transform="matrix(0.8613 -0.5082 0.5082 0.8613 -183.7601 531.4785)" class="st23" width="17.3" height="6"/>
						</g>
						<path class="st24" d="M882.8,621.8L882.8,621.8c-0.3,0.2-0.8,0.1-1-0.3l-13.5-22.9c-0.2-0.3-0.1-0.8,0.3-1l0,0
							c0.3-0.2,0.8-0.1,1,0.3l13.5,22.9C883.3,621.2,883.2,621.6,882.8,621.8z"/>
					</g>
					<path class="st25" d="M886.6,614.7l0.6,0.3l0,0c2.3,1.2,3.1,4.2,1.5,6.3l-4.2,5.9l-2.8-1.5l-0.6-0.3l-2.8-1.5l2.3-6.8
						C881.5,614.7,884.3,613.6,886.6,614.7L886.6,614.7z"/>
					<g>
						<path class="st26" d="M853.5,607.9c0.8-2.4,1.2-4.9,1.2-7.4c0-12.2-9.9-23.2-22.1-23.2c-12.2,0-22.1,11-22.1,23.2
							c0,2.5,0.4,5,1.2,7.4H853.5z"/>
						<g>
							<path class="st25" d="M811.8,603.1c2.8,0.2,5.9,0,9-0.6c8-1.6,14.5-5.8,17.9-10.8c3.9,6.1,9.5,10.1,14.7,10.8
								c0-0.2,0-0.5,0-0.7c0,11.5-9.3,22.9-20.8,22.9c-11.5,0-20.8-11.4-20.8-22.9C811.7,602.3,811.8,602.7,811.8,603.1z"/>
							<path class="st26" d="M838.7,591.7c-3.4,5-9.9,9.1-17.9,10.8c-3.1,0.6-6.1,0.8-9,0.6c0-0.4-0.1-0.8-0.1-1.3
								c0-11.5,9.3-20.8,20.8-20.8c0.7,0,1.3,0,1.9,0.1c0.4,0,0.8,0.1,1.2,0.2c0.2,0,0.5,0.1,0.7,0.1c0.4,0.1,0.8,0.2,1.2,0.3
								c0.2,0,0.4,0.1,0.5,0.1c0.4,0.1,0.9,0.3,1.3,0.4c0.1,0,0.2,0.1,0.3,0.1c0.5,0.2,1,0.4,1.4,0.6c1.3,0.6,2.5,1.3,3.7,2.2
								c0.1,0.1,0.2,0.1,0.3,0.2c1,0.8,2,1.6,2.8,2.6c0.1,0.1,0.3,0.3,0.4,0.4c0.2,0.3,0.4,0.5,0.7,0.8c0.2,0.2,0.3,0.4,0.5,0.6
								c0.2,0.3,0.4,0.5,0.5,0.8c0.3,0.4,0.6,0.9,0.8,1.3c0.1,0.2,0.2,0.4,0.3,0.7c0.2,0.3,0.3,0.7,0.5,1c0.1,0.2,0.2,0.4,0.3,0.7
								c0.2,0.4,0.3,0.8,0.5,1.3c0,0.1,0.1,0.3,0.2,0.4c0.2,0.6,0.3,1.1,0.4,1.7c0,0.2,0.1,0.4,0.1,0.5c0.1,0.5,0.2,0.9,0.2,1.4
								c0,0.2,0,0.4,0.1,0.6c0.1,0.6,0.1,1.3,0.1,1.9c0,0.2,0,0.5,0,0.7C848.2,601.8,842.6,597.8,838.7,591.7z"/>
						</g>
						<g>
							<circle class="st26" cx="823.2" cy="605.4" r="1"/>
							<circle class="st26" cx="842" cy="605.4" r="1"/>
						</g>
						<g>
							<path class="st27" d="M827.8,612.8v1.3c0,0.1,0,0.2,0,0.3c0.1,1,0.4,1.9,1,2.6c0.9,1.1,2.2,1.8,3.7,1.8
								c1.5,0,2.9-0.7,3.7-1.8c0.6-0.7,0.9-1.6,1-2.6c0-0.1,0-0.2,0-0.3v-1.3H827.8z"/>
							<path class="st28" d="M827.8,612.8v1.3c0,0.1,0,0.2,0,0.3h9.4c0-0.1,0-0.2,0-0.3v-1.3H827.8z"/>
						</g>
						<ellipse class="st25" cx="853.4" cy="605.2" rx="2.7" ry="2.9"/>
						<ellipse class="st25" cx="811.5" cy="605.2" rx="2.7" ry="2.9"/>
					</g>
					<path class="st32" d="M842.4,629.7c2.2-2.3,5.9-2.3,8.2,0c2,2,9,7.7,14.3,7.3c2.7-0.2,8.3-7.6,12.2-15.8l10.2,5.5
						c-3.5,7.4-11.3,21-21.4,21.8c-0.5,0-1,0.1-1.4,0.1c-10.9,0-20.8-9.6-21.9-10.7C840.2,635.6,840.2,632,842.4,629.7z"/>
					<path class="st25" d="M837.5,623v8.1c0,4.8-5,8.7-5,8.7s-5-3.9-5-8.7v-8.2c1.6,1.2,3.3,1.9,5.1,1.9
						C834.3,624.8,835.9,624.1,837.5,623z"/>
					<path class="st32" d="M844.7,627.8h-7.2v0.4c0,3.6-5,6.6-5,6.6s-5-3-5-6.6v-0.4h-7.2c-4.1,0-7.5,4-7.5,9v41.7h39.3v-41.7
						C852.1,631.8,848.8,627.8,844.7,627.8z"/>
					<path class="st26" d="M832.5,634.8c0,0-0.8-0.5-1.8-1.3v45h3.7v-45C833.3,634.3,832.5,634.8,832.5,634.8z"/>
					<polygon class="st32" points="818,675 813.9,675 813.9,675 818,675 					"/>
					<rect x="810.4" y="575.8" class="st26" width="43.6" height="22.2"/>
					<path class="st32" d="M822.2,631.8c-1.1-2.6-4.1-3.8-6.7-2.7c-9.7,4.1-17.2,11.5-20.5,20.2c-2.4,6.2-2.4,12.4-0.1,17.5
						c2.7,5.7,7.8,8.9,12.3,10.8l5-9.1c-2.9-1-6.6-2.8-8-6c-1.2-2.5-1-6,0.3-9.5c2.4-6.1,7.8-11.4,15-14.4
						C822.1,637.4,823.3,634.4,822.2,631.8z"/>
				</g>
			</g>
		</g>
		<polygon class="st5" points="338.6,317.5 345.7,339 367.2,346.2 345.7,353.3 338.6,374.8 331.4,353.3 309.9,346.2 331.4,339 		"/>
		<polygon class="st5" points="711.3,417.8 716.6,433.9 732.8,439.3 716.6,444.7 711.3,460.8 705.9,444.7 689.8,439.3 705.9,433.9 
					"/>
		<polygon class="st5" points="995.4,299.1 1002.2,319.4 1022.5,326.2 1002.2,333 995.4,353.3 988.6,333 968.3,326.2 988.6,319.4 		
			"/>
		<polygon class="st5" points="1298.5,459.8 1303.7,475.5 1319.4,480.8 1303.7,486 1298.5,501.8 1293.2,486 1277.5,480.8 
			1293.2,475.5 		"/>
		<polygon class="st5" points="250.3,511.3 254.6,524.3 267.7,528.7 254.6,533 250.3,546.1 245.9,533 232.9,528.7 245.9,524.3 		"/>
		<polygon class="st5" points="149.9,293.2 154.3,306.2 167.3,310.6 154.3,314.9 149.9,328 145.6,314.9 132.5,310.6 145.6,306.2 		
			"/>
	</g>
</g>
</svg>
